<svg xmlns="http://www.w3.org/2000/svg" viewBox="0 0 32 32" fill="none">
  <defs>
    <linearGradient id="bgGrad" x1="0%" y1="0%" x2="100%" y2="100%">
      <stop offset="0%" stop-color="#F7931A"/>
      <stop offset="100%" stop-color="#E67E00"/>
    </linearGradient>
    <filter id="shadow" x="-20%" y="-20%" width="140%" height="140%">
      <feDropShadow dx="0" dy="1" stdDeviation="1" flood-opacity="0.3"/>
    </filter>
  </defs>
  <rect width="32" height="32" rx="7" fill="url(#bgGrad)"/>
  <g filter="url(#shadow)">
    <path d="M21.5 14.5c0-2.5-2-3.5-4.5-3.8V8h-2v2.6c-.5 0-1 .1-1.5.1V8h-2v2.7c-.4 0-.8.1-1.2.1H8v2h1.5c.7 0 1 .3 1 .8v6.8c0 .4-.2.6-.6.6H8v2h2.3c.4 0 .8 0 1.2.1V26h2v-2.7c.5 0 1 .1 1.5.1V26h2v-2.8c2.7-.2 4.5-1.2 4.5-3.7 0-2-1.2-3-2.8-3.4 1.2-.4 2.3-1.3 2.3-3.1zm-7 .2h1.8c1.2 0 1.8.5 1.8 1.3s-.6 1.4-1.8 1.4h-1.8v-2.7zm2.3 6.6h-2.3v-2.8h2.3c1.3 0 2 .5 2 1.4s-.7 1.4-2 1.4z" fill="white"/>
  </g>
</svg>
